<?xml version="1.0" encoding="UTF-8" standalone="no"?>
<svg
   viewBox="0 0 512 512"
   version="1.1"
   id="svg1"
   sodipodi:docname="icon.svg"
   inkscape:version="1.3.2 (091e20e, 2023-11-25, custom)"
   width="512"
   height="512"
   inkscape:export-filename="icon-128x128.png"
   inkscape:export-xdpi="24"
   inkscape:export-ydpi="24"
   xmlns:inkscape="http://www.inkscape.org/namespaces/inkscape"
   xmlns:sodipodi="http://sodipodi.sourceforge.net/DTD/sodipodi-0.dtd"
   xmlns="http://www.w3.org/2000/svg"
   xmlns:svg="http://www.w3.org/2000/svg">
  <defs
     id="defs1" />
  <sodipodi:namedview
     id="namedview1"
     pagecolor="#ffffff"
     bordercolor="#000000"
     borderopacity="0.25"
     inkscape:showpageshadow="2"
     inkscape:pageopacity="0.0"
     inkscape:pagecheckerboard="0"
     inkscape:deskcolor="#d1d1d1"
     inkscape:zoom="2.1113281"
     inkscape:cx="256"
     inkscape:cy="256"
     inkscape:window-width="1920"
     inkscape:window-height="1009"
     inkscape:window-x="1912"
     inkscape:window-y="-8"
     inkscape:window-maximized="1"
     inkscape:current-layer="svg1" />
  <g
     id="g2"
     transform="matrix(0.99032882,0,0,0.99032882,2.4758221,2.4758221)">
    <path
       d="M 501.3138,132.35884 C 495.40828,110.1428 478.06664,92.707433 456.03808,86.801904 416.10546,76.02197 256,76.02197 256,76.02197 c 0,0 -160.10546,0 -200.038081,10.779934 C 33.933358,92.707433 16.591725,110.1428 10.686196,132.35884 0,172.57268 0,256.37495 0,256.37495 c 0,0 0,83.80227 10.686196,124.01612 5.905529,22.21603 23.247162,38.9015 45.275723,44.80703 C 95.89454,435.97803 256,435.97803 256,435.97803 c 0,0 160.10546,0 200.03808,-10.77993 22.02856,-5.90553 39.3702,-22.68473 45.27572,-44.80703 C 512,340.17722 512,256.37495 512,256.37495 c 0,0 0,-83.80227 -10.6862,-124.01611 z"
       id="path1"
       style="fill:#ff0033;fill-opacity:1;stroke:#000000;stroke-width:5;stroke-dasharray:none;stroke-opacity:1"
       sodipodi:nodetypes="ccccccccccccc" />
    <path
       id="path2"
       style="fill:#ffffff;fill-opacity:1;stroke:#000000;stroke-width:5;stroke-dasharray:none;stroke-opacity:1"
       d="M 229.7294,120.29371 V 255.38525 H 179.88502 L 256,389.15127 332.11498,255.38525 H 282.2706 V 120.29371 Z" />
  </g>
</svg>
