<?xml version="1.0" encoding="UTF-8" standalone="no"?>
<!-- Created with Inkscape (http://www.inkscape.org/) -->

<svg
   width="1024"
   height="1024"
   viewBox="0 0 1024 1024"
   version="1.1"
   id="svg1"
   xml:space="preserve"
   inkscape:version="1.4 (86a8ad7, 2024-10-11)"
   sodipodi:docname="icono.svg"
   inkscape:export-filename="dibujo.png"
   inkscape:export-xdpi="96"
   inkscape:export-ydpi="96"
   xmlns:inkscape="http://www.inkscape.org/namespaces/inkscape"
   xmlns:sodipodi="http://sodipodi.sourceforge.net/DTD/sodipodi-0.dtd"
   xmlns="http://www.w3.org/2000/svg"
   xmlns:svg="http://www.w3.org/2000/svg"><sodipodi:namedview
     id="namedview1"
     pagecolor="#505050"
     bordercolor="#ffffff"
     borderopacity="1"
     inkscape:showpageshadow="0"
     inkscape:pageopacity="0"
     inkscape:pagecheckerboard="1"
     inkscape:deskcolor="#505050"
     inkscape:document-units="px"
     inkscape:zoom="0.25417602"
     inkscape:cx="403.26385"
     inkscape:cy="1162.5802"
     inkscape:window-width="1920"
     inkscape:window-height="1009"
     inkscape:window-x="1912"
     inkscape:window-y="-8"
     inkscape:window-maximized="1"
     inkscape:current-layer="layer1" /><defs
     id="defs1" /><g
     inkscape:label="Capa 1"
     inkscape:groupmode="layer"
     id="layer1"
     transform="translate(-2387.1692,-136.03394)"><rect
       style="display:none;fill:#fdfbfb;fill-opacity:1;stroke:none;stroke-width:3.78"
       id="rect19"
       width="1024"
       height="1024"
       x="2387.1692"
       y="1160.0338"
       ry="0" /><rect
       style="fill:#fdfbfb;fill-opacity:1;stroke:none;stroke-width:3.78"
       id="rect18"
       width="1024"
       height="1024"
       x="2387.1692"
       y="136.03394"
       ry="0" /><g
       id="g17"
       transform="matrix(0.38791173,0,0,0.38791173,1964.3132,-6.7020779)"><g
         id="g15"><rect
           style="fill:#e51c25;fill-opacity:1;stroke:none;stroke-width:3.84926"
           id="rect1"
           width="766.15076"
           height="766.15076"
           x="1360.4116"
           y="1304.7726"
           ry="146.55199" /><g
           id="g9"
           transform="translate(1346.6366,-848.98469)"><path
             id="rect4"
             style="fill:#fdfbfb;fill-opacity:1;stroke:none;stroke-width:6.214"
             d="m 396.8221,2245.6465 c -16.62,0 -30,13.38 -30,30 v 267.5195 l -83.1094,-83.1094 c -11.7521,-11.7521 -30.6737,-11.7521 -42.4258,0 -11.7521,11.7522 -11.7521,30.6737 0,42.4258 l 133.3652,133.3653 c 4.2637,4.6793 9.975,8.0029 16.461,9.2441 0.0641,0.012 0.1291,0.017 0.1933,0.029 0.8592,0.1586 1.7257,0.2946 2.6094,0.3789 0.796,0.078 1.5937,0.1067 2.3926,0.1211 0.1727,0 0.3402,0.025 0.5137,0.025 0.005,0 0.009,0 0.0136,0 0.9941,4e-4 1.9884,-0.052 2.9785,-0.1504 0.4415,-0.043 0.8692,-0.1273 1.3047,-0.1895 0.5193,-0.075 1.0392,-0.1342 1.5547,-0.2363 0.6677,-0.1311 1.3181,-0.3061 1.9688,-0.4805 0.2741,-0.074 0.5518,-0.1291 0.8242,-0.2109 0.8233,-0.2458 1.6245,-0.5369 2.416,-0.8496 0.0924,-0.037 0.1872,-0.064 0.2793,-0.1016 3.9152,-1.5918 7.404,-3.9856 10.2832,-6.9785 l 133.9688,-133.9668 c 11.7521,-11.7521 11.7521,-30.6736 0,-42.4258 -11.7522,-11.7521 -30.6757,-11.7521 -42.4278,0 l -83.164,83.1641 v -267.5742 c 0,-16.62 -13.38,-30 -30,-30 z" /><path
             id="rect7"
             style="fill:#fdfbfb;fill-opacity:1;stroke:none;stroke-width:4.88868"
             d="m 176.8504,2568.0195 c -16.62,0 -30,13.6934 -30,30.7032 v 138.5937 c 0,0.12 0.0163,0.2358 0.0176,0.3555 -0.001,0.117 -0.0176,0.2302 -0.0176,0.3476 0,16.62 13.38,30 30,30 h 440 c 16.62,0 30,-13.38 30,-30 0,-0.1174 -0.0162,-0.2306 -0.0176,-0.3476 10e-4,-0.1197 0.0176,-0.2355 0.0176,-0.3555 v -138.5937 c 0,-17.0098 -13.38,-30.7032 -30,-30.7032 -16.62,0 -30,13.6934 -30,30.7032 v 109.2968 h -380 v -109.2968 c 0,-17.0098 -13.38,-30.7032 -30,-30.7032 z" /></g></g><g
         id="g16"><text
           xml:space="preserve"
           style="font-weight:bold;font-size:480px;font-family:Roboto;-inkscape-font-specification:'Roboto Bold';text-align:start;writing-mode:lr-tb;direction:ltr;text-anchor:start;fill:#14191c;fill-opacity:1;stroke:none;stroke-width:9.39118"
           x="2280.1553"
           y="1646.0226"
           id="text9"><tspan
             sodipodi:role="line"
             id="tspan9"
             x="2280.1553"
             y="1646.0226"
             style="font-size:480px;stroke-width:9.39118">Down</tspan><tspan
             sodipodi:role="line"
             x="2280.1553"
             y="2246.0225"
             id="tspan10"
             style="font-size:480px;stroke-width:9.39118" /></text><text
           xml:space="preserve"
           style="font-weight:bold;font-size:480px;font-family:Roboto;-inkscape-font-specification:'Roboto Bold';text-align:start;writing-mode:lr-tb;direction:ltr;text-anchor:start;fill:#14191c;fill-opacity:1;stroke:none;stroke-width:6.92584"
           x="2280.1553"
           y="2066.2358"
           id="text11"><tspan
             sodipodi:role="line"
             id="tspan11"
             x="2280.1553"
             y="2066.2358"
             style="font-size:480px;stroke-width:6.92584">Hub</tspan></text></g></g><rect
       style="display:none;fill:#14191c;fill-opacity:1;stroke:none;stroke-width:3.04658"
       id="rect11"
       width="184.06148"
       height="766.15082"
       x="2126.5625"
       y="1304.7726"
       ry="24.917866" /><g
       id="g18"
       transform="translate(-1047.5153,1003.1647)"
       inkscape:export-filename="..\extension\icons\icon-128x128.png"
       inkscape:export-xdpi="16.038618"
       inkscape:export-ydpi="16.038618"><rect
         style="fill:#e51c25;fill-opacity:1;stroke:none;stroke-width:3.84926"
         id="rect12"
         width="766.15076"
         height="766.15076"
         x="3563.6091"
         y="285.79373"
         ry="146.55199" /><g
         id="g13"
         transform="matrix(0.78158517,0,0,0.78158517,3636.5121,-1388.7911)"><path
           id="path12"
           style="fill:#fdfbfb;fill-opacity:1;stroke:none;stroke-width:6.214"
           d="m 396.8221,2245.6465 c -16.62,0 -30,13.38 -30,30 v 267.5195 l -83.1094,-83.1094 c -11.7521,-11.7521 -30.6737,-11.7521 -42.4258,0 -11.7521,11.7522 -11.7521,30.6737 0,42.4258 l 133.3652,133.3653 c 4.2637,4.6793 9.975,8.0029 16.461,9.2441 0.0641,0.012 0.1291,0.017 0.1933,0.029 0.8592,0.1586 1.7257,0.2946 2.6094,0.3789 0.796,0.078 1.5937,0.1067 2.3926,0.1211 0.1727,0 0.3402,0.025 0.5137,0.025 0.005,0 0.009,0 0.0136,0 0.9941,4e-4 1.9884,-0.052 2.9785,-0.1504 0.4415,-0.043 0.8692,-0.1273 1.3047,-0.1895 0.5193,-0.075 1.0392,-0.1342 1.5547,-0.2363 0.6677,-0.1311 1.3181,-0.3061 1.9688,-0.4805 0.2741,-0.074 0.5518,-0.1291 0.8242,-0.2109 0.8233,-0.2458 1.6245,-0.5369 2.416,-0.8496 0.0924,-0.037 0.1872,-0.064 0.2793,-0.1016 3.9152,-1.5918 7.404,-3.9856 10.2832,-6.9785 l 133.9688,-133.9668 c 11.7521,-11.7521 11.7521,-30.6736 0,-42.4258 -11.7522,-11.7521 -30.6757,-11.7521 -42.4278,0 l -83.164,83.1641 v -267.5742 c 0,-16.62 -13.38,-30 -30,-30 z" /><path
           id="path13"
           style="fill:#fdfbfb;fill-opacity:1;stroke:none;stroke-width:4.88868"
           d="m 176.8504,2568.0195 c -16.62,0 -30,13.6934 -30,30.7032 v 138.5937 c 0,0.12 0.0163,0.2358 0.0176,0.3555 -0.001,0.117 -0.0176,0.2302 -0.0176,0.3476 0,16.62 13.38,30 30,30 h 440 c 16.62,0 30,-13.38 30,-30 0,-0.1174 -0.0162,-0.2306 -0.0176,-0.3476 10e-4,-0.1197 0.0176,-0.2355 0.0176,-0.3555 v -138.5937 c 0,-17.0098 -13.38,-30.7032 -30,-30.7032 -16.62,0 -30,13.6934 -30,30.7032 v 109.2968 h -380 v -109.2968 c 0,-17.0098 -13.38,-30.7032 -30,-30.7032 z" /></g><text
         xml:space="preserve"
         style="font-weight:bold;font-size:151.443px;font-family:Roboto;-inkscape-font-specification:'Roboto Bold';text-align:start;writing-mode:lr-tb;direction:ltr;text-anchor:start;fill:#fdfbfb;fill-opacity:1;stroke:none;stroke-width:1.19262"
         x="3615.8835"
         y="939.33759"
         id="text17"><tspan
           sodipodi:role="line"
           id="tspan17"
           x="3615.8835"
           y="939.33759"
           style="stroke-width:1.19262">DownHub</tspan></text></g></g></svg>
