<?xml version="1.0" encoding="UTF-8" standalone="no"?>
<!-- Created with Inkscape (http://www.inkscape.org/) -->

<svg
   width="1024"
   height="1024"
   viewBox="0 0 1024 1024"
   version="1.1"
   id="svg1"
   xml:space="preserve"
   inkscape:version="1.4 (86a8ad7, 2024-10-11)"
   sodipodi:docname="icono.svg"
   inkscape:export-filename="dibujo.png"
   inkscape:export-xdpi="96"
   inkscape:export-ydpi="96"
   xmlns:inkscape="http://www.inkscape.org/namespaces/inkscape"
   xmlns:sodipodi="http://sodipodi.sourceforge.net/DTD/sodipodi-0.dtd"
   xmlns="http://www.w3.org/2000/svg"
   xmlns:svg="http://www.w3.org/2000/svg"><sodipodi:namedview
     id="namedview1"
     pagecolor="#505050"
     bordercolor="#ffffff"
     borderopacity="1"
     inkscape:showpageshadow="0"
     inkscape:pageopacity="0"
     inkscape:pagecheckerboard="1"
     inkscape:deskcolor="#505050"
     inkscape:document-units="px"
     inkscape:zoom="0.25417602"
     inkscape:cx="690.46639"
     inkscape:cy="1937.6336"
     inkscape:window-width="1920"
     inkscape:window-height="1009"
     inkscape:window-x="1912"
     inkscape:window-y="-8"
     inkscape:window-maximized="1"
     inkscape:current-layer="layer1" /><defs
     id="defs1" /><g
     inkscape:label="Capa 1"
     inkscape:groupmode="layer"
     id="layer1"
     transform="translate(-2387.1692,-136.03394)"><rect
       style="display:none;fill:#fdfbfb;fill-opacity:1;stroke:none;stroke-width:3.78"
       id="rect19"
       width="1024"
       height="1024"
       x="2387.1692"
       y="1160.0338"
       ry="0" /><rect
       style="fill:#fdfbfb;fill-opacity:1;stroke:none;stroke-width:3.78"
       id="rect18"
       width="1024"
       height="1024"
       x="2387.1692"
       y="136.03394"
       ry="0" /><g
       id="g17"
       transform="matrix(0.38791173,0,0,0.38791173,1964.3132,-6.7020779)"><g
         id="g15"><rect
           style="fill:#e51c25;fill-opacity:1;stroke:none;stroke-width:3.84926"
           id="rect1"
           width="766.15076"
           height="766.15076"
           x="1360.4116"
           y="1304.7726"
           ry="146.55199" /><g
           id="g9"
           transform="translate(1346.6366,-848.98469)"><path
             id="rect4"
             style="fill:#fdfbfb;fill-opacity:1;stroke:none;stroke-width:6.214"
             d="m 396.8221,2245.6465 c -16.62,0 -30,13.38 -30,30 v 267.5195 l -83.1094,-83.1094 c -11.7521,-11.7521 -30.6737,-11.7521 -42.4258,0 -11.7521,11.7522 -11.7521,30.6737 0,42.4258 l 133.3652,133.3653 c 4.2637,4.6793 9.975,8.0029 16.461,9.2441 0.0641,0.012 0.1291,0.017 0.1933,0.029 0.8592,0.1586 1.7257,0.2946 2.6094,0.3789 0.796,0.078 1.5937,0.1067 2.3926,0.1211 0.1727,0 0.3402,0.025 0.5137,0.025 0.005,0 0.009,0 0.0136,0 0.9941,4e-4 1.9884,-0.052 2.9785,-0.1504 0.4415,-0.043 0.8692,-0.1273 1.3047,-0.1895 0.5193,-0.075 1.0392,-0.1342 1.5547,-0.2363 0.6677,-0.1311 1.3181,-0.3061 1.9688,-0.4805 0.2741,-0.074 0.5518,-0.1291 0.8242,-0.2109 0.8233,-0.2458 1.6245,-0.5369 2.416,-0.8496 0.0924,-0.037 0.1872,-0.064 0.2793,-0.1016 3.9152,-1.5918 7.404,-3.9856 10.2832,-6.9785 l 133.9688,-133.9668 c 11.7521,-11.7521 11.7521,-30.6736 0,-42.4258 -11.7522,-11.7521 -30.6757,-11.7521 -42.4278,0 l -83.164,83.1641 v -267.5742 c 0,-16.62 -13.38,-30 -30,-30 z" /><path
             id="rect7"
             style="fill:#fdfbfb;fill-opacity:1;stroke:none;stroke-width:4.88868"
             d="m 176.8504,2568.0195 c -16.62,0 -30,13.6934 -30,30.7032 v 138.5937 c 0,0.12 0.0163,0.2358 0.0176,0.3555 -0.001,0.117 -0.0176,0.2302 -0.0176,0.3476 0,16.62 13.38,30 30,30 h 440 c 16.62,0 30,-13.38 30,-30 0,-0.1174 -0.0162,-0.2306 -0.0176,-0.3476 10e-4,-0.1197 0.0176,-0.2355 0.0176,-0.3555 v -138.5937 c 0,-17.0098 -13.38,-30.7032 -30,-30.7032 -16.62,0 -30,13.6934 -30,30.7032 v 109.2968 h -380 v -109.2968 c 0,-17.0098 -13.38,-30.7032 -30,-30.7032 z" /></g></g><g
         id="g16"><text
           xml:space="preserve"
           style="font-weight:bold;font-size:480px;font-family:Roboto;-inkscape-font-specification:'Roboto Bold';text-align:start;writing-mode:lr-tb;direction:ltr;text-anchor:start;fill:#14191c;fill-opacity:1;stroke:none;stroke-width:9.39118"
           x="2280.1553"
           y="1646.0226"
           id="text9"><tspan
             sodipodi:role="line"
             id="tspan9"
             x="2280.1553"
             y="1646.0226"
             style="font-size:480px;stroke-width:9.39118">Down</tspan><tspan
             sodipodi:role="line"
             x="2280.1553"
             y="2246.0225"
             id="tspan10"
             style="font-size:480px;stroke-width:9.39118" /></text><text
           xml:space="preserve"
           style="font-weight:bold;font-size:480px;font-family:Roboto;-inkscape-font-specification:'Roboto Bold';text-align:start;writing-mode:lr-tb;direction:ltr;text-anchor:start;fill:#14191c;fill-opacity:1;stroke:none;stroke-width:6.92584"
           x="2280.1553"
           y="2066.2358"
           id="text11"><tspan
             sodipodi:role="line"
             id="tspan11"
             x="2280.1553"
             y="2066.2358"
             style="font-size:480px;stroke-width:6.92584">Hub</tspan></text></g></g><rect
       style="display:none;fill:#14191c;fill-opacity:1;stroke:none;stroke-width:3.04658"
       id="rect11"
       width="184.06148"
       height="766.15082"
       x="2126.5625"
       y="1304.7726"
       ry="24.917866" /><g
       id="g18"
       transform="translate(-1047.5153,1003.1647)"
       inkscape:export-filename="C:\Users\wipodev\Desktop\logo.png"
       inkscape:export-xdpi="128.30894"
       inkscape:export-ydpi="128.30894"><rect
         style="fill:#e51c25;fill-opacity:1;stroke:none;stroke-width:3.84926"
         id="rect12"
         width="766.15076"
         height="766.15076"
         x="3563.6091"
         y="285.79373"
         ry="146.55199" /><g
         id="g13"
         transform="matrix(0.78158517,0,0,0.78158517,3636.5121,-1388.7911)"><path
           id="path12"
           style="fill:#fdfbfb;fill-opacity:1;stroke:none;stroke-width:6.214"
           d="m 396.8221,2245.6465 c -16.62,0 -30,13.38 -30,30 v 267.5195 l -83.1094,-83.1094 c -11.7521,-11.7521 -30.6737,-11.7521 -42.4258,0 -11.7521,11.7522 -11.7521,30.6737 0,42.4258 l 133.3652,133.3653 c 4.2637,4.6793 9.975,8.0029 16.461,9.2441 0.0641,0.012 0.1291,0.017 0.1933,0.029 0.8592,0.1586 1.7257,0.2946 2.6094,0.3789 0.796,0.078 1.5937,0.1067 2.3926,0.1211 0.1727,0 0.3402,0.025 0.5137,0.025 0.005,0 0.009,0 0.0136,0 0.9941,4e-4 1.9884,-0.052 2.9785,-0.1504 0.4415,-0.043 0.8692,-0.1273 1.3047,-0.1895 0.5193,-0.075 1.0392,-0.1342 1.5547,-0.2363 0.6677,-0.1311 1.3181,-0.3061 1.9688,-0.4805 0.2741,-0.074 0.5518,-0.1291 0.8242,-0.2109 0.8233,-0.2458 1.6245,-0.5369 2.416,-0.8496 0.0924,-0.037 0.1872,-0.064 0.2793,-0.1016 3.9152,-1.5918 7.404,-3.9856 10.2832,-6.9785 l 133.9688,-133.9668 c 11.7521,-11.7521 11.7521,-30.6736 0,-42.4258 -11.7522,-11.7521 -30.6757,-11.7521 -42.4278,0 l -83.164,83.1641 v -267.5742 c 0,-16.62 -13.38,-30 -30,-30 z" /><path
           id="path13"
           style="fill:#fdfbfb;fill-opacity:1;stroke:none;stroke-width:4.88868"
           d="m 176.8504,2568.0195 c -16.62,0 -30,13.6934 -30,30.7032 v 138.5937 c 0,0.12 0.0163,0.2358 0.0176,0.3555 -0.001,0.117 -0.0176,0.2302 -0.0176,0.3476 0,16.62 13.38,30 30,30 h 440 c 16.62,0 30,-13.38 30,-30 0,-0.1174 -0.0162,-0.2306 -0.0176,-0.3476 10e-4,-0.1197 0.0176,-0.2355 0.0176,-0.3555 v -138.5937 c 0,-17.0098 -13.38,-30.7032 -30,-30.7032 -16.62,0 -30,13.6934 -30,30.7032 v 109.2968 h -380 v -109.2968 c 0,-17.0098 -13.38,-30.7032 -30,-30.7032 z" /></g><text
         xml:space="preserve"
         style="font-weight:bold;font-size:151.443px;font-family:Roboto;-inkscape-font-specification:'Roboto Bold';text-align:start;writing-mode:lr-tb;direction:ltr;text-anchor:start;fill:#fdfbfb;fill-opacity:1;stroke:none;stroke-width:1.19262"
         x="3615.8835"
         y="939.33759"
         id="text17"><tspan
           sodipodi:role="line"
           id="tspan17"
           x="3615.8835"
           y="939.33759"
           style="stroke-width:1.19262">DownHub</tspan></text></g><g
       id="g4"
       transform="translate(-91.484908,991.36186)"
       inkscape:export-filename="C:\Users\wipodev\Desktop\logo.png"
       inkscape:export-xdpi="128.30894"
       inkscape:export-ydpi="128.30894"><rect
         style="fill:#333333;fill-opacity:1;stroke:none;stroke-width:3.84926"
         id="rect2"
         width="766.15076"
         height="766.15076"
         x="3563.6091"
         y="285.79373"
         ry="146.55199"
         inkscape:export-filename="icon_service.png"
         inkscape:export-xdpi="6.014482"
         inkscape:export-ydpi="6.014482" /><g
         id="g3"
         transform="matrix(0.78158517,0,0,0.78158517,3636.5121,-1414.7911)"><path
           id="path2"
           style="fill:#fdfbfb;fill-opacity:1;stroke:none;stroke-width:6.214"
           d="m 396.8221,2245.6465 c -16.62,0 -30,13.38 -30,30 v 267.5195 l -83.1094,-83.1094 c -11.7521,-11.7521 -30.6737,-11.7521 -42.4258,0 -11.7521,11.7522 -11.7521,30.6737 0,42.4258 l 133.3652,133.3653 c 4.2637,4.6793 9.975,8.0029 16.461,9.2441 0.0641,0.012 0.1291,0.017 0.1933,0.029 0.8592,0.1586 1.7257,0.2946 2.6094,0.3789 0.796,0.078 1.5937,0.1067 2.3926,0.1211 0.1727,0 0.3402,0.025 0.5137,0.025 0.005,0 0.009,0 0.0136,0 0.9941,4e-4 1.9884,-0.052 2.9785,-0.1504 0.4415,-0.043 0.8692,-0.1273 1.3047,-0.1895 0.5193,-0.075 1.0392,-0.1342 1.5547,-0.2363 0.6677,-0.1311 1.3181,-0.3061 1.9688,-0.4805 0.2741,-0.074 0.5518,-0.1291 0.8242,-0.2109 0.8233,-0.2458 1.6245,-0.5369 2.416,-0.8496 0.0924,-0.037 0.1872,-0.064 0.2793,-0.1016 3.9152,-1.5918 7.404,-3.9856 10.2832,-6.9785 l 133.9688,-133.9668 c 11.7521,-11.7521 11.7521,-30.6736 0,-42.4258 -11.7522,-11.7521 -30.6757,-11.7521 -42.4278,0 l -83.164,83.1641 v -267.5742 c 0,-16.62 -13.38,-30 -30,-30 z" /><path
           d="m 586.85,2606.3447 c 2.18566,0.911 3.2711,3.0962 3.2711,3.0962 0.63537,1.1458 14.60395,29.5664 14.60395,29.5664 2.01859,2.1059 10.68542,2.9312 10.68542,2.9312 8.33511,1.6771 14.37133,-3.3835 14.37133,-3.3835 l 12.03212,-29.469 c 1.01566,-2.5413 3.45638,-3.2089 5.03534,-3.406 v -6.957 c 0,-17.0098 -13.37963,-30.7044 -29.99963,-30.7044 -16.62,0 -29.99963,13.6946 -29.99963,30.7044 z"
           style="fill:#fdfbfb;stroke-width:4.88868"
           id="path14"
           sodipodi:nodetypes="cccccccsssc" /><path
           d="m 176.8509,2568.0186 c -16.62,0 -29.99963,13.6946 -29.99963,30.7044 v 138.593 c 0,0.12 0.0162,0.2352 0.0175,0.3549 -0.001,0.117 -0.0175,0.2324 -0.0175,0.3498 0,16.62 13.37963,29.9996 29.99963,29.9996 h 312.69834 c 0.64666,-2.749 3.23362,-4.0407 3.23362,-4.0407 0,0 7.86742,-5.0795 17.0027,-10.1382 9.13631,-5.054 8.70877,-14.3663 8.70877,-14.3663 2.11237,-12.6714 -5.07533,-15.9832 -5.07533,-15.9832 l -22.58031,-12.9994 c -1.2357,-0.7422 -1.98904,-1.6065 -2.46644,-2.4739 H 206.85053 V 2598.723 c 0,-17.0098 -13.37963,-30.7044 -29.99963,-30.7044 z"
           style="fill:#fdfbfb;stroke-width:4.88868"
           id="path6" /></g><text
         xml:space="preserve"
         style="font-weight:bold;font-size:151.443px;font-family:Roboto;-inkscape-font-specification:'Roboto Bold';text-align:start;writing-mode:lr-tb;direction:ltr;text-anchor:start;fill:#fdfbfb;fill-opacity:1;stroke:none;stroke-width:1.19262"
         x="3615.8835"
         y="929.33759"
         id="text3"><tspan
           sodipodi:role="line"
           id="tspan3"
           x="3615.8835"
           y="929.33759"
           style="stroke-width:1.19262">DownHub</tspan></text><text
         xml:space="preserve"
         style="font-weight:bold;font-size:120px;font-family:Roboto;-inkscape-font-specification:'Roboto Bold';text-align:start;writing-mode:lr-tb;direction:ltr;text-anchor:start;fill:#fdfbfb;fill-opacity:1;stroke:#ffffff;stroke-width:0.27531;stroke-linejoin:round"
         x="3744.4189"
         y="1030.8315"
         id="text4"><tspan
           sodipodi:role="line"
           id="tspan4"
           x="3744.4189"
           y="1030.8315"
           style="font-size:120px;stroke-width:0.27531">Service</tspan></text><path
         fill="#000000"
         d="m 4041.4881,768.05263 c 0,0 1.1792,3.03822 6.8562,0.8255 l 15.5169,-4.21575 c 0,0 4.4973,-1.37357 9.2792,2.88677 0,0 6.669,4.56368 6.1809,8.32915 l -4.3263,22.02706 c 0,0 -1.4072,3.71317 2.8056,6.11737 l 17.3714,6.63221 c 0,0 4.8388,0.47029 6.124,-3.51668 l 7.5548,-13.88164 c 0,0 2.5049,-6.05597 10.6053,-5.6548 0,0 8.1815,-0.73591 11.0442,3.67996 l 9.9055,16.59283 c 0,0 1.7975,4.21985 7.1245,1.70924 l 15.3871,-6.5913 c 0,0 4.31,-2.85811 2.9925,-6.72637 l -4.7982,-16.77658 c 0,0 -2.1389,-4.5223 2.334,-9.54355 0,0 4.7986,-7.93255 11.4267,-6.34567 l 18.4041,4.40768 c 0,0 3.8144,1.69286 7.1324,-3.7291 l 5.9371,-14.84269 c 0,0 1.8134,-5.33233 -3.3588,-7.6542 l -15.2325,-8.87313 c 0,0 -4.245,-1.95437 -4.0093,-9.70684 0,0 -1.1547,-8.7053 4.2942,-11.71076 l 14.9561,-9.18378 c 0,0 4.9122,-2.21635 2.8138,-7.40905 l -6.3599,-14.46246 c 0,0 -2.0657,-5.65525 -8.1245,-3.83142 l -17.3714,5.56521 c 0,0 -5.9939,-0.0859 -9.7025,-4.15026 0,0 -6.1809,-5.99411 -4.286,-11.12997 l 4.0092,-17.41289 c 0,0 1.025,-5.09491 -2.8057,-6.94877 l -17.9653,-6.85144 c 0,0 -3.8628,-0.23696 -5.0582,2.75441 l -10.1011,18.1647 c 0,0 -4.7166,3.95649 -11.2312,2.6457 0,0 -6.7742,-0.64586 -8.352,-2.29185 0,0 -10.2226,-17.34512 -10.7192,-18.24066 0,0 -1.8948,-3.95424 -5.8553,-2.36781 l -16.4524,6.95333 c 0,0 -3.3099,2.07308 -2.4805,5.0558 l 5.8476,22.10075 c 0,0 -1.2444,5.40192 -5.0505,8.3701 0,0 -6.7015,4.9803 -9.9381,4.37538 l -17.9573,-4.38357 c 0,0 -5.1965,-1.87296 -7.246,2.66572 l -6.7259,16.63377 c 0,0 -1.2926,3.44256 2.2611,5.57703 l 17.6479,10.16119 c 0,0 5.6195,2.58796 3.9685,12.49172 0,0 0.3334,7.27806 -6.8074,11.2282 -7.14,3.95376 -13.2888,7.92437 -13.2888,7.92437 0,0 -3.936,1.90525 -2.2367,6.16603 1.6998,4.26396 8.0602,16.39181 8.0602,16.39181 z m 46.5352,-31.54195 c -7.4252,-17.4802 0.6586,-37.71253 18.0462,-45.16252 17.3802,-7.4741 37.4916,0.66222 44.9091,18.14651 7.4252,17.4843 -0.6585,37.69979 -18.0463,45.16616 -17.3877,7.46638 -37.5001,-0.66995 -44.909,-18.15015 z"
         id="path2-8"
         style="display:inline;fill:#fdfbfb;fill-opacity:1;stroke-width:0.453566" /></g><g
       id="g6"
       transform="translate(-2019.2828,1003.1647)"
       inkscape:export-filename="icon_install.png"
       inkscape:export-xdpi="6.014482"
       inkscape:export-ydpi="6.014482"><g
         id="g12"><rect
           style="fill:#e51c25;fill-opacity:1;stroke:none;stroke-width:3.84926"
           id="rect3"
           width="766.15076"
           height="766.15076"
           x="3563.6091"
           y="285.79373"
           ry="146.55199" /><g
           id="g11"><path
             id="path3"
             style="fill:#fdfbfb;fill-opacity:1;stroke:none;stroke-width:6.17047"
             d="m 3946.6563,349.79761 c -16.5036,0 -29.7899,13.28627 -29.7899,29.78985 v 265.64547 l -82.5272,-82.52719 c -11.6697,-11.66978 -30.4588,-11.66978 -42.1285,0 -11.6699,11.66986 -11.6699,30.45881 0,42.12859 l 132.4308,132.43105 c 4.2339,4.64652 9.9051,7.94684 16.3458,9.17934 0.064,0.0114 0.1281,0.0169 0.1919,0.0288 0.8532,0.15749 1.7137,0.29254 2.5911,0.37624 0.7905,0.0775 1.5826,0.10596 2.3759,0.12032 0.1714,0 0.3378,0.0248 0.5101,0.0248 0,0 0.013,0 0.014,0 0.9871,4e-4 1.9744,-0.0516 2.9575,-0.14934 0.4385,-0.0427 0.8632,-0.12642 1.2957,-0.18817 0.5157,-0.0745 1.0319,-0.13327 1.5438,-0.23465 0.663,-0.13018 1.3088,-0.30395 1.955,-0.47713 0.2721,-0.0734 0.548,-0.1282 0.8184,-0.20943 0.8176,-0.24407 1.6132,-0.53314 2.3991,-0.84364 0.091,-0.0367 0.1859,-0.0635 0.2773,-0.10088 3.8879,-1.58065 7.3521,-3.95767 10.2112,-6.92961 l 133.0303,-133.02835 c 11.6698,-11.66976 11.6698,-30.45872 0,-42.12859 -11.6698,-11.66978 -30.4608,-11.66978 -42.1305,0 l -82.5815,82.58153 V 379.58676 c 0,-16.50357 -13.2863,-29.78985 -29.7898,-29.78985 z" /><path
             id="rect8"
             style="display:inline;fill:#fdfbfb;fill-opacity:1;stroke:#ffffff;stroke-width:0.388331;stroke-linejoin:round"
             d="m 3727.8973,765.53721 c -16.2144,0 -29.2676,13.05314 -29.2676,29.26758 v 139.67382 c 0,16.21444 13.0532,29.26758 29.2676,29.26758 h 437.5742 c 16.2145,0 29.2676,-13.05314 29.2676,-29.26758 V 794.80479 c 0,-16.21444 -13.0531,-29.26758 -29.2676,-29.26758 z m 43.9317,72.58594 a 26.518642,26.518642 0 0 1 26.5195,26.51953 26.518642,26.518642 0 0 1 -26.5195,26.51758 26.518642,26.518642 0 0 1 -26.5176,-26.51758 26.518642,26.518642 0 0 1 26.5176,-26.51953 z m 217.4296,8.74804 h 158.8516 c 9.8455,0 17.7715,7.92602 17.7715,17.77149 0,9.84546 -7.926,17.77148 -17.7715,17.77148 h -158.8516 c -9.8454,0 -17.7714,-7.92602 -17.7714,-17.77148 0,-9.84547 7.926,-17.77149 17.7714,-17.77149 z" /></g></g></g></g></svg>
