<svg width="100%" height="100%" version="1.1" viewBox="0 0 36 36">
 <path d="m27.849 13.036c-0.2371-0.89196-0.93336-1.592-1.8178-1.8291-1.6033-0.43281-8.0315-0.43281-8.0315-0.43281s-6.4281 0-8.0315 0.43281c-0.88445 0.2371-1.5807 0.93712-1.8178 1.8291-0.42906 1.6146-0.42906 4.9792-0.42906 4.9792s0 3.3646 0.42906 4.9792c0.2371 0.89196 0.93336 1.5619 1.8178 1.799 1.6033 0.43281 8.0315 0.43281 8.0315 0.43281s6.4281 0 8.0315-0.43281c0.88445-0.2371 1.5807-0.91078 1.8178-1.799 0.42906-1.6146 0.42906-4.9792 0.42906-4.9792s0-3.3646-0.42906-4.9792z" fill="none" stroke="#fff" stroke-width="2.7"/>
 <path d="m16.59 13.123v4.9008h-2.6748l4.0846 4.8525 4.0846-4.8525h-2.6748v-4.9008z" fill="none" stroke="#fff" stroke-linecap="round" stroke-linejoin="round" stroke-width="1.4"/>
</svg>
